<svg width="237" height="232" viewBox="0 0 237 232" fill="none" xmlns="http://www.w3.org/2000/svg">
<g clip-path="url(#clip0_475_1985)">
<path d="M234.001 124.776C234.045 124.252 234.084 123.733 234.152 123.214C234.881 117.642 238.273 75.7522 185.552 23.0618C128.864 -33.5669 66.9276 30.0361 56.2258 46.6619C45.524 63.2877 42.4135 88.8182 34.1515 72.0177C29.0484 61.629 42.3552 48.6262 23.508 54.0727C11.4113 57.5599 -11.0518 88.4011 7.36291 141.373C25.7776 194.345 77.4933 234.798 127.202 231.83C191.116 228.038 228.777 181.778 225.764 178.34C222.75 174.901 198.97 185.159 204.2 178.015C209.351 170.997 232.5 144.438 234.001 124.776Z" fill="#369FFF"/>
<path opacity="0.8" d="M234.001 124.776C234.045 124.252 234.084 123.733 234.152 123.214C234.881 117.642 238.273 75.7522 185.552 23.0618C128.864 -33.5669 66.9276 30.0361 56.2258 46.6619C45.524 63.2877 42.4135 88.8182 34.1515 72.0177C29.0484 61.629 42.3552 48.6262 23.508 54.0727C11.4113 57.5599 -11.0518 88.4011 7.36291 141.373C25.7776 194.345 77.4933 234.798 127.202 231.83C191.116 228.038 228.777 181.778 225.764 178.34C222.75 174.901 198.97 185.159 204.2 178.015C209.351 170.997 232.5 144.438 234.001 124.776Z" fill="white"/>
<path d="M10.2061 153.508C10.2061 153.508 8.9279 157.024 6.20627 157.499C3.48465 157.974 -1.32193 152.707 1.72045 149.991C4.76284 147.275 8.91818 151.592 10.2061 153.508Z" fill="#369FFF" stroke="#263238" stroke-width="0.75" stroke-linecap="round" stroke-linejoin="round"/>
<path d="M14.3613 136.251C14.3613 136.251 10.3566 146 11.9605 150.801C13.5643 155.603 23.4836 159.08 26.3656 152.867C29.2476 146.654 22.847 137.832 20.4412 135.931C18.0355 134.03 15.1584 134.656 14.3613 136.251Z" fill="#369FFF" stroke="#263238" stroke-width="0.75" stroke-linecap="round" stroke-linejoin="round"/>
<path d="M37.7333 140.408C37.7333 140.408 30.8515 146.635 30.0496 152.867C29.2477 159.1 33.889 161.335 38.6956 160.535C43.5022 159.735 45.8982 147.595 44.4596 142.003C43.021 136.411 37.7333 140.408 37.7333 140.408Z" fill="#369FFF" stroke="#263238" stroke-width="0.75" stroke-linecap="round" stroke-linejoin="round"/>
<path d="M39.0164 174.915C39.0164 174.915 31.3278 175.236 31.0119 178.912C30.696 182.588 34.3702 183.384 38.0541 180.187C41.738 176.991 42.2143 175.085 39.0164 174.915Z" fill="#369FFF" stroke="#263238" stroke-width="0.75" stroke-linecap="round" stroke-linejoin="round"/>
<path d="M31.1383 179.785C31.1383 179.785 37.1939 177.025 39.9204 176.54" stroke="#263238" stroke-width="0.75" stroke-miterlimit="10"/>
<path d="M40.7271 198.962C40.7271 198.962 35.0846 193.748 32.2463 196.11C29.408 198.472 31.4347 201.644 36.3044 201.998C41.1742 202.352 42.8703 201.338 40.7271 198.962Z" fill="#369FFF" stroke="#263238" stroke-width="0.75" stroke-linecap="round" stroke-linejoin="round"/>
<path d="M31.7118 196.818C31.7118 196.818 37.9472 199.156 40.212 200.747" stroke="#263238" stroke-width="0.75" stroke-miterlimit="10"/>
<path d="M10.9545 197.424C10.9545 197.424 18.7305 190.237 22.6429 193.496C26.5552 196.755 23.7607 201.125 17.049 201.61C10.3372 202.095 7.99957 200.703 10.9545 197.424Z" fill="#369FFF" stroke="#263238" stroke-width="0.75" stroke-linecap="round" stroke-linejoin="round"/>
<path d="M23.3768 194.485C23.3768 194.485 14.7842 197.691 11.6641 199.888" stroke="#263238" stroke-width="0.75" stroke-miterlimit="10"/>
<path d="M19.965 182.583C19.965 182.583 19.1631 186.42 16.281 187.855C13.399 189.291 8.26198 186.24 10.9982 181.628C13.7344 177.015 18.5215 180.668 19.965 182.583Z" fill="#369FFF" stroke="#263238" stroke-width="0.75" stroke-linecap="round" stroke-linejoin="round"/>
<path d="M13.2387 170.604C13.2387 170.604 11.7807 167.408 6.19651 169.483C0.61232 171.559 -1.6476 174.755 1.87107 175.876C5.38974 176.996 13.2387 170.604 13.2387 170.604Z" fill="#369FFF" stroke="#263238" stroke-width="0.75" stroke-linecap="round" stroke-linejoin="round"/>
<path d="M12.15 170.458C12.15 170.458 6.21593 171.098 3.0083 173.819" stroke="#263238" stroke-width="0.75" stroke-miterlimit="10"/>
<path d="M29.2477 132.26C29.2477 132.26 30.2197 134.495 32.1297 134.015C34.0397 133.535 34.5305 130.659 37.5729 131.459C40.6153 132.26 43.1766 135.771 43.1766 134.175C43.1766 132.58 39.3323 128.423 34.9923 128.423C30.6522 128.423 29.4081 130.184 29.2477 132.26Z" fill="#369FFF" stroke="#263238" stroke-width="0.75" stroke-linecap="round" stroke-linejoin="round"/>
<path d="M13.2388 170.604C13.2388 170.604 20.1352 169.28 23.0026 176.909C23.2867 177.674 23.5269 178.454 23.7219 179.247" stroke="#263238" stroke-width="0.75" stroke-miterlimit="10"/>
<path d="M42.0101 163.203C42.0101 163.203 43.4681 160.007 49.0523 162.082C54.6365 164.158 56.8964 167.354 53.3778 168.475C49.8591 169.595 42.0101 163.203 42.0101 163.203Z" fill="#369FFF" stroke="#263238" stroke-width="0.75" stroke-linecap="round" stroke-linejoin="round"/>
<path d="M43.2883 163.411C43.2883 163.411 49.0669 163.091 51.7934 166.452" stroke="#263238" stroke-width="0.75" stroke-miterlimit="10"/>
<path d="M42.0101 163.203C40.3901 162.974 38.7381 163.197 37.2375 163.848" stroke="#263238" stroke-width="0.75" stroke-miterlimit="10"/>
<path d="M16.9129 157.47C13.5351 154.026 10.1963 153.508 10.1963 153.508C10.1963 153.508 5.2682 152.203 3.34363 153.968" stroke="#263238" stroke-width="0.75" stroke-miterlimit="10"/>
<path d="M17.5982 139.772L17.3018 138.439" stroke="#263238" stroke-width="0.75" stroke-miterlimit="10"/>
<path d="M25.3937 210.403C25.3937 210.403 26.113 182.889 25.3937 174.513C24.6745 166.137 21.3307 156.369 21.3307 156.369L17.9287 141.169" stroke="#263238" stroke-width="0.75" stroke-miterlimit="10"/>
<path d="M39.6239 145.68L40.2411 144.36" stroke="#263238" stroke-width="0.75" stroke-miterlimit="10"/>
<path d="M27.0704 210.374C27.0704 210.374 27.3086 185.275 28.266 178.116C29.2234 170.958 33.0483 159.73 33.0483 159.73L38.9192 147.173" stroke="#263238" stroke-width="0.75" stroke-miterlimit="10"/>
<path d="M31.1383 179.785C31.1383 179.785 29.4616 194.175 28.5042 210.408" stroke="#263238" stroke-width="0.75" stroke-miterlimit="10"/>
<path d="M23.0025 210.374C23.0025 210.374 23.4885 187.424 22.5165 184.32C21.5445 181.216 19.9552 182.583 19.9552 182.583C19.9552 182.583 15.5277 183.102 13.9191 185.663" stroke="#263238" stroke-width="0.75" stroke-miterlimit="10"/>
<path d="M24.101 181.046C25.3548 188.044 24.1982 210.393 24.1982 210.393" stroke="#263238" stroke-width="0.75" stroke-miterlimit="10"/>
<path d="M35.8817 164.599C34.1823 165.819 32.9104 167.541 32.2464 169.522C29.3741 177.161 29.6997 210.408 29.6997 210.408" stroke="#263238" stroke-width="0.75" stroke-miterlimit="10"/>
<path d="M17.7488 158.382C19.5458 160.548 20.9221 163.03 21.8069 165.7C25.6366 176.681 27.0703 205.121 26.3511 210.374" stroke="#263238" stroke-width="0.75" stroke-miterlimit="10"/>
<path d="M27.469 168.659C27.2357 182.515 27.0704 210.369 27.0704 210.369" stroke="#263238" stroke-width="0.75" stroke-miterlimit="10"/>
<path d="M27.498 166.932C27.6536 157.771 27.8431 148.798 28.0278 143.977C28.5138 131.561 29.2477 132.26 29.2477 132.26C29.2477 132.26 30.1322 129.495 35.1089 129.791" stroke="#263238" stroke-width="0.75" stroke-miterlimit="10"/>
<path d="M21.3842 177.399C21.3842 177.399 17.3844 173.839 18.9833 172.064C20.5823 170.289 30.5113 169.028 33.3933 171.307C36.2753 173.587 29.8552 176.817 27.4544 177.51C25.0535 178.204 22.1715 177.995 21.3842 177.399Z" fill="#369FFF" stroke="#263238" stroke-width="0.75" stroke-linecap="round" stroke-linejoin="round"/>
<path d="M25.0683 174.484C25.0094 174.843 24.98 175.206 24.9806 175.57" stroke="#263238" stroke-width="0.75" stroke-miterlimit="10"/>
<path d="M26.4434 170.322C26.0309 171.176 25.6879 172.062 25.418 172.971" stroke="#263238" stroke-width="0.75" stroke-miterlimit="10"/>
<path d="M21.3842 200.688C21.3842 200.688 17.3844 197.124 18.9833 195.353C20.5823 193.583 30.5113 192.317 33.3933 194.597C36.2753 196.876 29.8552 200.102 27.4544 200.79C25.0535 201.479 22.1715 201.275 21.3842 200.688Z" fill="#369FFF" stroke="#263238" stroke-width="0.75" stroke-linecap="round" stroke-linejoin="round"/>
<path d="M26.4435 193.612C26.4435 193.612 24.9855 196.522 24.9855 198.836" stroke="#263238" stroke-width="0.75" stroke-miterlimit="10"/>
<path d="M24.3488 190.838C24.3488 190.838 21.632 188.413 22.7207 187.23C23.8093 186.046 30.5453 185.168 32.5039 186.716C34.4625 188.263 30.1128 190.44 28.4798 190.916C26.8468 191.391 24.8931 191.236 24.3488 190.838Z" fill="#369FFF" stroke="#263238" stroke-width="0.75" stroke-linecap="round" stroke-linejoin="round"/>
<path d="M27.7945 186.036C27.7945 186.036 26.8225 188.02 26.8225 189.582" stroke="#263238" stroke-width="0.75" stroke-miterlimit="10"/>
<path d="M31.425 206.411H20.5919V230.385H31.425V206.411Z" fill="#263238" stroke="#263238" stroke-width="0.75" stroke-linecap="round" stroke-linejoin="round"/>
<path d="M209.905 34.7503H169.523V63.8212H209.905V34.7503Z" fill="#263238" stroke="#263238" stroke-linecap="round" stroke-linejoin="round"/>
<path d="M207.777 36.9182H171.657V61.6533H207.777V36.9182Z" fill="#C4C4C4" stroke="#263238" stroke-linecap="round" stroke-linejoin="round"/>
<path d="M203.534 40.4636H175.895V58.1031H203.534V40.4636Z" fill="white" stroke="#263238" stroke-linecap="round" stroke-linejoin="round"/>
<path d="M200.37 56.3474C201.336 56.3474 202.119 55.5657 202.119 54.6014C202.119 53.6371 201.336 52.8554 200.37 52.8554C199.404 52.8554 198.62 53.6371 198.62 54.6014C198.62 55.5657 199.404 56.3474 200.37 56.3474Z" fill="white" stroke="#263238" stroke-linecap="round" stroke-linejoin="round"/>
<path d="M180.094 48.631H199.349" stroke="#263238" stroke-linecap="round" stroke-linejoin="round"/>
<path d="M203.441 76.8726H176.011V96.617H203.441V76.8726Z" fill="#263238" stroke="#263238" stroke-linecap="round" stroke-linejoin="round"/>
<path d="M201.993 78.347H177.46V95.1474H201.993V78.347Z" fill="#C4C4C4" stroke="#263238" stroke-linecap="round" stroke-linejoin="round"/>
<path d="M199.111 80.7526H180.337V92.737H199.111V80.7526Z" fill="white" stroke="#263238" stroke-linecap="round" stroke-linejoin="round"/>
<path d="M198.154 90.3604C198.154 90.5955 198.084 90.8252 197.953 91.0206C197.822 91.216 197.636 91.3683 197.419 91.4582C197.201 91.5482 196.962 91.5717 196.731 91.5259C196.5 91.48 196.287 91.3668 196.121 91.2007C195.954 91.0345 195.841 90.8228 195.795 90.5923C195.749 90.3618 195.773 90.1228 195.863 89.9057C195.953 89.6886 196.106 89.503 196.301 89.3725C196.497 89.2419 196.727 89.1722 196.963 89.1722C197.279 89.1722 197.582 89.2974 197.805 89.5202C198.028 89.7431 198.154 90.0453 198.154 90.3604Z" fill="white" stroke="#263238" stroke-linecap="round" stroke-linejoin="round"/>
<path d="M183.19 86.3058H196.268" stroke="#263238" stroke-linecap="round" stroke-linejoin="round"/>
<path d="M64.3469 34.7503H23.9648V63.8212H64.3469V34.7503Z" fill="#263238" stroke="#263238" stroke-linecap="round" stroke-linejoin="round"/>
<path d="M62.2182 36.9182H26.0984V61.6533H62.2182V36.9182Z" fill="#C4C4C4" stroke="#263238" stroke-linecap="round" stroke-linejoin="round"/>
<path d="M57.9754 40.4636H30.3363V58.1031H57.9754V40.4636Z" fill="white" stroke="#263238" stroke-linecap="round" stroke-linejoin="round"/>
<path d="M54.8115 56.3474C55.7778 56.3474 56.5611 55.5657 56.5611 54.6014C56.5611 53.6371 55.7778 52.8554 54.8115 52.8554C53.8452 52.8554 53.0619 53.6371 53.0619 54.6014C53.0619 55.5657 53.8452 56.3474 54.8115 56.3474Z" fill="white" stroke="#263238" stroke-linecap="round" stroke-linejoin="round"/>
<path d="M34.5306 48.631H53.7861" stroke="#263238" stroke-linecap="round" stroke-linejoin="round"/>
<path d="M57.8782 76.8726H30.4481V96.617H57.8782V76.8726Z" fill="#263238" stroke="#263238" stroke-linecap="round" stroke-linejoin="round"/>
<path d="M56.43 78.347H31.8965V95.1474H56.43V78.347Z" fill="#C4C4C4" stroke="#263238" stroke-linecap="round" stroke-linejoin="round"/>
<path d="M53.5528 80.7526H34.7784V92.737H53.5528V80.7526Z" fill="white" stroke="#263238" stroke-linecap="round" stroke-linejoin="round"/>
<path d="M52.5905 90.3604C52.5905 90.5955 52.5207 90.8252 52.3899 91.0206C52.259 91.216 52.0731 91.3683 51.8555 91.4582C51.6379 91.5482 51.3985 91.5717 51.1675 91.5259C50.9365 91.48 50.7244 91.3668 50.5579 91.2007C50.3913 91.0345 50.2779 90.8228 50.232 90.5923C50.186 90.3618 50.2096 90.1228 50.2997 89.9057C50.3899 89.6886 50.5425 89.503 50.7383 89.3725C50.9341 89.2419 51.1643 89.1722 51.3998 89.1722C51.7156 89.1722 52.0185 89.2974 52.2418 89.5202C52.4651 89.7431 52.5905 90.0453 52.5905 90.3604Z" fill="white" stroke="#263238" stroke-linecap="round" stroke-linejoin="round"/>
<path d="M37.6265 86.3058H50.7097" stroke="#263238" stroke-linecap="round" stroke-linejoin="round"/>
<path d="M58.7045 20.9278H57.0909V144.04H58.7045V20.9278Z" fill="white" stroke="#263238" stroke-linecap="round" stroke-linejoin="round"/>
<path d="M72.7694 144.04L57.815 24.6283L46.4766 144.04H72.7694Z" fill="white" stroke="#263238" stroke-linecap="round" stroke-linejoin="round"/>
<path d="M72.643 144.04L68.2155 107.816L50.802 135.824L62.4515 144.04H72.643Z" fill="white" stroke="#263238" stroke-linecap="round" stroke-linejoin="round"/>
<path d="M73.0416 122.802L50.802 135.824L57.815 24.6283L73.0416 122.802Z" fill="white" stroke="#263238" stroke-linecap="round" stroke-linejoin="round"/>
<path d="M57.8151 24.6283L73.0416 122.802L61.1977 114.838L57.8151 24.6283Z" fill="white" stroke="#263238" stroke-linecap="round" stroke-linejoin="round"/>
<path d="M61.1976 114.838L66.7575 105.434L60.2305 93.6148L61.1976 114.838Z" fill="white" stroke="#263238" stroke-linecap="round" stroke-linejoin="round"/>
<path d="M57.8151 24.6283L48.3866 94.3374L66.7576 105.434L57.8151 24.6283Z" fill="white" stroke="#263238" stroke-linecap="round" stroke-linejoin="round"/>
<path d="M57.091 20.9278L55.0109 17.2806L57.9998 11.4315L60.9936 17.5231L58.6996 20.9278H57.091Z" fill="white" stroke="#263238" stroke-linecap="round" stroke-linejoin="round"/>
<path d="M97.4195 92.1792H138.161C139.249 92.1792 140.292 92.6105 141.062 93.3781C141.831 94.1458 142.263 95.187 142.263 96.2726V143.948H93.3127V96.2726C93.3127 95.7346 93.419 95.202 93.6254 94.705C93.8319 94.2081 94.1345 93.7566 94.5159 93.3764C94.8973 92.9962 95.35 92.6948 95.8483 92.4894C96.3465 92.284 96.8804 92.1786 97.4195 92.1792Z" fill="#263238" stroke="#263238" stroke-linecap="round" stroke-linejoin="round"/>
<path d="M110.969 100.473C110.969 100.473 92.9045 107.035 92.5011 107.864C92.0977 108.693 93.3127 143.943 93.3127 143.943H139.42C139.42 143.943 139.075 136.528 139.075 129.359C139.075 122.191 143.308 110.124 142.249 108.844C141.189 107.563 133.559 103.79 130.098 102.51C126.638 101.229 122.92 100.085 122.92 100.085L110.969 100.473Z" fill="#369FFF" stroke="#263238" stroke-linecap="round" stroke-linejoin="round"/>
<path d="M114.444 111.55L116.335 114.644C116.335 114.644 114.522 120.464 114.522 126.032V145.039H120.719C120.719 145.039 120.267 121.056 119.96 118.849C119.689 117.269 119.234 115.726 118.604 114.252L120.49 110.779L117.394 107.612L114.444 111.55Z" fill="#263238" stroke="#263238" stroke-linecap="round" stroke-linejoin="round"/>
<path d="M117.696 109.295C117.696 109.295 110.59 116.914 110.513 116.614C110.435 116.313 109.541 104.091 109.609 102.282C109.611 101.312 109.844 100.356 110.289 99.493L125.331 100.167C126.089 101.952 126.4 103.895 126.235 105.827C126.011 109.222 124.194 116.463 124.194 116.463L117.696 109.295Z" fill="#369FFF" stroke="#263238" stroke-linecap="round" stroke-linejoin="round"/>
<path d="M114.746 74.5252C114.746 74.5252 109.988 76.7853 109.001 78.9726C108.014 81.16 107.893 87.8724 107.893 87.8724C107.893 87.8724 106.984 86.6696 106.761 89.3807C106.537 92.0919 107.592 94.2841 107.971 94.5896L108.345 94.8903C108.345 94.8903 109.555 100.225 110.692 102.355C111.83 104.484 115.98 109.6 117.72 109.295C119.46 108.989 125.355 102.282 125.496 101.753C125.637 101.224 127.537 95.3414 127.537 95.3414C127.962 94.9975 128.256 94.5179 128.368 93.9834C128.441 93.2316 128.519 91.6457 128.519 91.6457C128.519 91.6457 129.802 88.629 129.272 87.4213C128.742 86.2137 128.14 86.6696 128.14 86.6696C128.14 86.6696 127.839 80.1075 126.249 78.1433C124.66 76.179 120.354 74.2972 118.473 74.0693C117.212 73.9565 115.942 74.1119 114.746 74.5252Z" fill="white" stroke="#263238" stroke-linecap="round" stroke-linejoin="round"/>
<path d="M108.705 88.4204C108.959 87.9259 109.137 87.3962 109.234 86.849C109.425 85.8271 109.702 84.8228 110.061 83.8469C110.513 82.7944 109.983 79.2685 110.284 78.444C110.585 77.6195 112.316 75.5922 113.521 75.8153C113.521 75.8153 114.648 76.567 117.657 76.6398C120.665 76.7125 122.318 76.0432 122.318 76.0432C122.318 76.0432 125.924 77.5419 125.399 78.4682C124.874 79.3946 125.326 83.2697 126.074 84.4677C126.516 85.1481 126.798 85.9189 126.901 86.7229C126.901 86.7229 126.453 87.7705 126.901 87.8481C127.348 87.9257 128.125 86.6938 128.125 86.6938C128.125 86.6938 127.824 80.1318 126.235 78.1675C124.646 76.2033 120.34 74.3215 118.459 74.0935C117.206 73.9842 115.944 74.1396 114.755 74.5494C114.755 74.5494 109.997 76.8095 109.011 78.9969C108.024 81.1842 107.893 87.8724 107.893 87.8724C107.893 87.8724 108.408 88.8715 108.705 88.4204Z" fill="#263238" stroke="#263238" stroke-linecap="round" stroke-linejoin="round"/>
<path d="M115.956 92.024C115.956 92.024 115.883 93.1541 116.184 93.5324C116.732 94.0706 117.458 94.3913 118.225 94.4345C118.828 94.3617 120.038 93.8331 120.116 93.3044C120.155 92.8024 120.155 92.2981 120.116 91.7961" stroke="#263238" stroke-linecap="round" stroke-linejoin="round"/>
<path d="M113.764 95.9477C113.764 95.9477 116.486 97.0001 118.138 97.0001C119.79 97.0001 122.371 95.9477 122.371 95.9477" stroke="#263238" stroke-linecap="round" stroke-linejoin="round"/>
<path d="M114.697 88.2701C114.653 88.4317 114.566 88.578 114.443 88.6924C114.321 88.8068 114.169 88.8847 114.004 88.9173C113.84 88.95 113.669 88.936 113.512 88.8771C113.355 88.8182 113.218 88.7166 113.116 88.5839C113.013 88.4512 112.951 88.2926 112.934 88.126C112.917 87.9595 112.948 87.7916 113.022 87.6414C113.096 87.4912 113.21 87.3647 113.353 87.2761C113.495 87.1875 113.659 87.1403 113.827 87.14C114.091 87.1786 114.329 87.3182 114.492 87.5291C114.654 87.7401 114.728 88.0058 114.697 88.2701Z" fill="#263238"/>
<path d="M122.872 88.2701C122.828 88.4317 122.74 88.578 122.618 88.6924C122.495 88.8068 122.343 88.8847 122.179 88.9173C122.014 88.95 121.844 88.936 121.687 88.8771C121.53 88.8182 121.392 88.7166 121.29 88.5839C121.188 88.4512 121.125 88.2926 121.109 88.126C121.092 87.9595 121.122 87.7916 121.196 87.6414C121.27 87.4912 121.385 87.3647 121.527 87.2761C121.67 87.1875 121.834 87.1403 122.002 87.14C122.265 87.1786 122.504 87.3182 122.666 87.5291C122.828 87.7401 122.902 88.0058 122.872 88.2701Z" fill="#263238"/>
<path d="M110.969 86.2573C110.969 86.2573 112.86 84.5986 115.956 85.8063" stroke="#263238" stroke-width="2" stroke-linecap="round" stroke-linejoin="round"/>
<path d="M119.737 85.8063C119.737 85.8063 122.609 84.2979 124.573 86.2573" stroke="#263238" stroke-width="2" stroke-linecap="round" stroke-linejoin="round"/>
<path d="M111.951 100.545C111.951 100.545 114.454 103.261 115.664 103.79C116.874 104.319 119.586 104.018 120.417 103.868C121.248 103.717 123.513 101.928 123.97 101.152" stroke="#263238" stroke-linecap="round" stroke-linejoin="round"/>
<path d="M107.835 137.081C107.835 137.081 114.668 137.231 115.528 137.517C116.388 137.803 128.956 142.338 129.578 142.576C130.2 142.813 134.2 143.575 133.914 144.428C133.627 145.282 130.482 145.287 127.814 145.398C125.146 145.51 119.712 145.015 117.948 145.015C116.184 145.015 114.23 145.442 111.324 145.015C109.742 144.769 108.147 144.619 106.547 144.564L107.835 137.081Z" fill="white" stroke="#263238" stroke-linecap="round" stroke-linejoin="round"/>
<path d="M121.763 143.434C122.864 143.628 123.947 143.914 125 144.288C126.337 144.811 126.196 145.476 126.196 145.476" stroke="#263238" stroke-linecap="round" stroke-linejoin="round"/>
<path d="M123.095 142.197C123.095 142.197 128.388 144.05 129.151 144.336C129.914 144.622 130.609 144.714 130.293 145.427" stroke="#263238" stroke-linecap="round" stroke-linejoin="round"/>
<path d="M127.289 142.435C127.289 142.435 131.581 143.623 132.149 143.953C132.718 144.283 132.669 144.763 132.48 144.952" stroke="#263238" stroke-linecap="round" stroke-linejoin="round"/>
<path d="M93.7356 107.335C93.7356 107.335 90.3336 108.844 89.8816 109.76C89.4296 110.677 83.7579 120.241 83.7579 120.241C83.7579 120.241 81.3279 122.128 81.187 123.185C81.046 124.243 75.7097 137.124 79.9574 143.449C80.7447 144.622 82.0715 144.957 82.3874 145.112C82.7033 145.267 106.547 144.53 106.547 144.53L107.835 137.061L99.7037 133.564C98.8744 133.083 98.0904 132.528 97.3612 131.906C97.0932 131.596 96.8417 131.272 96.6079 130.936C96.6079 130.936 99.3295 116.386 99.0379 114.931C98.7463 113.476 97.0939 111.914 97.0939 111.914" fill="#369FFF"/>
<path d="M93.7356 107.335C93.7356 107.335 90.3336 108.844 89.8816 109.76C89.4296 110.677 83.7579 120.241 83.7579 120.241C83.7579 120.241 81.3279 122.128 81.187 123.185C81.046 124.243 75.7097 137.124 79.9574 143.449C80.7447 144.622 82.0715 144.957 82.3874 145.112C82.7033 145.267 106.547 144.53 106.547 144.53L107.835 137.061L99.7037 133.564C98.8744 133.083 98.0904 132.528 97.3612 131.906C97.0932 131.596 96.8417 131.272 96.6079 130.936C96.6079 130.936 99.3295 116.386 99.0379 114.931C98.7463 113.476 97.0939 111.914 97.0939 111.914" stroke="#263238" stroke-linecap="round" stroke-linejoin="round"/>
<path d="M95.1693 114.349C95.1693 114.349 90.6349 116.914 89.726 118.35C88.8172 119.785 87.782 121.439 86.8538 121.818C85.9255 122.196 83.3788 121.74 83.7579 121.139C84.137 120.537 87.0093 115.178 88.0639 113.519C89.1185 111.861 90.9362 110.954 92.297 111.71C93.6578 112.467 95.1693 114.349 95.1693 114.349Z" fill="#263238" stroke="#263238" stroke-linecap="round" stroke-linejoin="round"/>
<path d="M91.3298 111.953L94.2702 114.106C94.2702 114.106 89.4684 117.016 88.9776 117.923C88.4867 118.83 88.1903 120.076 87.3106 120.561C86.4309 121.046 84.9583 120.76 84.7591 120.367C84.5598 119.975 87.5342 113.912 88.4527 113.519C89.3712 113.126 91.3298 111.953 91.3298 111.953Z" fill="#369FFF" stroke="#263238" stroke-linecap="round" stroke-linejoin="round"/>
<path d="M98.8727 133.734C98.8727 133.734 97.2883 133.511 96.8315 134.491C96.3747 135.47 94.8875 141.353 95.6991 142.862" stroke="#263238" stroke-linecap="round" stroke-linejoin="round"/>
<path d="M91.3931 129.068C94.6153 129.33 95.6262 130.116 95.6262 130.116" stroke="#263238" stroke-linecap="round" stroke-linejoin="round"/>
<path d="M85.6485 130.189C85.6485 130.189 85.041 128.908 89.6532 128.986" stroke="#263238" stroke-linecap="round" stroke-linejoin="round"/>
<path d="M90.4453 125.193C92.3893 126.086 94.3674 127.269 95.0186 128.588" stroke="#263238" stroke-linecap="round" stroke-linejoin="round"/>
<path d="M85.7992 123.476C85.7992 123.476 87.2572 123.889 89.0457 124.597" stroke="#263238" stroke-linecap="round" stroke-linejoin="round"/>
<path d="M88.4528 126.862C89.5626 127.138 90.6509 127.495 91.709 127.929" stroke="#263238" stroke-linecap="round" stroke-linejoin="round"/>
<path d="M85.1188 127.172C85.1188 127.172 83.3011 127.628 83.3011 126.871C83.3011 126.449 84.5016 126.236 86.3678 126.474" stroke="#263238" stroke-linecap="round" stroke-linejoin="round"/>
<path d="M139.712 107.335C139.712 107.335 143.114 108.844 143.566 109.76C144.018 110.677 149.689 120.232 149.689 120.232C149.689 120.232 152.921 126.954 153.65 127.73C154.161 128.273 158.35 139.035 154.967 142.765C154.278 143.476 153.451 144.04 152.537 144.423C152.236 144.579 127.571 142.614 127.571 142.614L126.283 135.145L133.729 133.598C134.563 133.112 135.351 132.551 136.081 131.92C136.352 131.611 136.605 131.287 136.839 130.95C136.839 130.95 134.118 116.4 134.409 114.945C134.701 113.49 136.353 111.928 136.353 111.928" fill="#369FFF"/>
<path d="M139.712 107.335C139.712 107.335 143.114 108.844 143.566 109.76C144.018 110.677 149.689 120.232 149.689 120.232C149.689 120.232 152.921 126.954 153.65 127.73C154.161 128.273 158.35 139.035 154.967 142.765C154.278 143.476 153.451 144.04 152.537 144.423C152.236 144.579 127.571 142.614 127.571 142.614L126.283 135.145L133.729 133.598C134.563 133.112 135.351 132.551 136.081 131.92C136.352 131.611 136.605 131.287 136.839 130.95C136.839 130.95 134.118 116.4 134.409 114.945C134.701 113.49 136.353 111.928 136.353 111.928" stroke="#263238" stroke-linecap="round" stroke-linejoin="round"/>
<path d="M138.273 114.349C138.273 114.349 142.807 116.914 143.716 118.35C144.625 119.785 145.66 121.439 146.589 121.818C147.517 122.196 150.064 121.74 149.689 121.139C149.315 120.537 146.438 115.178 145.378 113.519C144.319 111.861 142.506 110.954 141.145 111.71C139.785 112.467 138.273 114.349 138.273 114.349Z" fill="#263238" stroke="#263238" stroke-linecap="round" stroke-linejoin="round"/>
<path d="M142.501 111.953L139.585 114.106C139.585 114.106 144.387 117.016 144.878 117.923C145.369 118.83 145.665 120.076 146.545 120.561C147.424 121.046 148.897 120.76 149.096 120.367C149.296 119.975 146.321 113.912 145.403 113.519C144.484 113.126 142.501 111.953 142.501 111.953Z" fill="#369FFF" stroke="#263238" stroke-linecap="round" stroke-linejoin="round"/>
<path d="M134.57 133.734C135.317 133.743 136.039 134.01 136.611 134.491C138.604 136.46 139.527 141.955 137.743 142.862" stroke="#263238" stroke-linecap="round" stroke-linejoin="round"/>
<path d="M145.101 129.01C144.717 129.01 144.285 128.986 143.794 129.01C139.182 129.083 137.821 130.14 137.821 130.14" stroke="#263238" stroke-linecap="round" stroke-linejoin="round"/>
<path d="M147.799 130.189C147.799 130.189 148.071 129.616 146.861 129.257" stroke="#263238" stroke-linecap="round" stroke-linejoin="round"/>
<path d="M145.476 124.189C143.046 125.062 139.371 126.672 138.424 128.608" stroke="#263238" stroke-linecap="round" stroke-linejoin="round"/>
<path d="M147.648 123.476C147.648 123.476 147.318 123.568 146.788 123.738" stroke="#263238" stroke-linecap="round" stroke-linejoin="round"/>
<path d="M148.328 127.172C148.328 127.172 150.141 127.628 150.141 126.871C150.141 126.115 146.36 126.042 141.753 127.929" stroke="#263238" stroke-linecap="round" stroke-linejoin="round"/>
<path d="M126.293 135.131C126.293 135.131 120.753 134.835 120.228 134.966C119.703 135.097 114.697 136.537 113.842 137.255C112.986 137.973 109.468 141.576 109.424 142.105C109.38 142.634 109.468 142.847 110.124 142.804C110.617 142.734 111.093 142.569 111.523 142.319C111.523 142.319 110.386 143.584 110.998 143.934C111.611 144.283 113.01 143.89 113.842 143.323C114.673 142.755 115.854 141.926 115.854 141.926C115.854 141.926 114.366 143.977 115.368 144.283C116.369 144.588 119.217 142.406 119.217 142.406C119.217 142.406 117.905 143.672 119.61 143.715C121.316 143.759 123.722 141.926 123.722 141.926C123.722 141.926 127.26 142.93 129.972 142.755C130.316 142.096 130.394 141.331 130.191 140.616C129.846 139.418 126.293 135.131 126.293 135.131Z" fill="white" stroke="#263238" stroke-linecap="round" stroke-linejoin="round"/>
<path d="M119.222 142.386C119.222 142.386 122.065 140.815 122.502 140.335C122.94 139.855 124.908 139.365 125.039 139.365" stroke="#263238" stroke-linecap="round" stroke-linejoin="round"/>
<path d="M115.854 141.906C115.854 141.906 119.256 139.331 119.79 139.113C120.325 138.894 121.977 138.065 121.977 138.065L122.59 137.76" stroke="#263238" stroke-linecap="round" stroke-linejoin="round"/>
<path d="M111.523 142.299C111.523 142.299 116.16 138.327 117.078 137.89C117.997 137.454 120.403 136.406 120.403 136.406" stroke="#263238" stroke-linecap="round" stroke-linejoin="round"/>
<path d="M132.135 119.252C132.135 119.252 130.832 118.437 129.894 118.481C128.956 118.524 127.294 119.659 127.294 119.659C127.294 119.659 126.356 119.334 126.191 120.023C126.127 120.255 126.123 120.5 126.18 120.734C126.237 120.969 126.353 121.184 126.517 121.362C126.756 121.91 126.933 122.482 127.046 123.069C127.046 123.069 126.439 125.057 126.643 125.707C126.79 126.076 127.028 126.402 127.333 126.656C127.639 126.91 128.003 127.084 128.393 127.162C129.174 127.4 129.934 127.7 130.667 128.06C131.585 127.699 132.459 127.236 133.272 126.677C134.127 125.989 134.293 124.199 134.006 123.714C133.719 123.229 133.233 122.089 133.272 121.599C133.311 121.109 133.841 120.464 133.68 119.979C133.52 119.494 133.316 118.68 132.786 118.84C132.256 119 131.931 119.169 132.135 119.252Z" fill="white" stroke="#263238" stroke-linecap="round" stroke-linejoin="round"/>
<path d="M109.327 124.446H102.693V125.799H109.327V124.446Z" fill="#263238" stroke="#263238" stroke-linecap="round" stroke-linejoin="round"/>
<path d="M112.194 112.86C112.693 112.86 113.098 112.354 113.098 111.73C113.098 111.105 112.693 110.6 112.194 110.6C111.695 110.6 111.29 111.105 111.29 111.73C111.29 112.354 111.695 112.86 112.194 112.86Z" fill="#263238" stroke="#263238" stroke-linecap="round" stroke-linejoin="round"/>
<path d="M123.158 112.86C123.658 112.86 124.062 112.354 124.062 111.73C124.062 111.105 123.658 110.6 123.158 110.6C122.659 110.6 122.254 111.105 122.254 111.73C122.254 112.354 122.659 112.86 123.158 112.86Z" fill="#263238" stroke="#263238" stroke-linecap="round" stroke-linejoin="round"/>
<path d="M127.673 104.76L131.95 106.589C131.95 106.589 135.464 107.214 136.071 107.733C136.679 108.252 138.472 109.6 139.269 110.115C140.066 110.629 142.278 111.759 142.462 111.148C142.647 110.536 143.026 109.208 141.947 108.616C140.868 108.024 138.788 105.769 137.753 105.677C136.718 105.585 133.641 104.149 133.17 104.149C132.699 104.149 129.53 101.913 128.592 102.476C127.654 103.038 127.673 104.76 127.673 104.76Z" fill="#369FFF" stroke="#263238" stroke-linecap="round" stroke-linejoin="round"/>
<path d="M108.282 104.275L103.033 106.108C103.033 106.108 99.7475 107.268 99.1448 107.782C98.5422 108.296 96.4961 109.576 95.6991 110.09C94.902 110.604 92.6907 111.734 92.506 111.123C92.3213 110.512 91.9422 109.183 93.0212 108.592C94.1001 108 97.6528 104.828 98.6831 104.712C99.7135 104.595 102.571 103.567 103.057 103.567C103.543 103.567 106.775 101.559 107.713 102.112C108.651 102.665 108.282 104.275 108.282 104.275Z" fill="#369FFF" stroke="#263238" stroke-linecap="round" stroke-linejoin="round"/>
<path d="M116.383 86.3301H109.293C109.293 86.3301 109.293 88.6387 109.876 89.793C110.459 90.9473 113.074 90.9667 114.537 90.8454C116.772 90.6369 117.389 86.3301 116.383 86.3301Z" stroke="#263238" stroke-linecap="round" stroke-linejoin="round"/>
<path d="M119.834 86.3301H126.93C126.93 86.3301 126.93 88.6387 126.347 89.793C125.763 90.9473 123.149 90.9667 121.681 90.8454C119.445 90.6369 118.828 86.3301 119.834 86.3301Z" stroke="#263238" stroke-linecap="round" stroke-linejoin="round"/>
<path d="M116.383 86.3058H119.834" stroke="#263238" stroke-linecap="round" stroke-linejoin="round"/>
<path d="M116.962 87.4116C117.346 87.25 117.759 87.1667 118.177 87.1667C118.594 87.1667 119.007 87.25 119.392 87.4116" stroke="#263238" stroke-linecap="round" stroke-linejoin="round"/>
<path d="M213.025 111.473H168.449L161.431 143.604H206.008L213.025 111.473Z" fill="#263238" stroke="#263238" stroke-linecap="round" stroke-linejoin="round"/>
<path d="M161.431 143.604H138.934V142.338L161.815 141.543L161.431 143.604Z" fill="#263238" stroke="#263238" stroke-linecap="round" stroke-linejoin="round"/>
<path d="M213.759 143.575H27.3329V230.802H213.759V143.575Z" fill="#C4C4C4" stroke="#263238" stroke-linecap="round" stroke-linejoin="round"/>
<path d="M213.759 143.575H27.3329V151.252H213.759V143.575Z" fill="#263238" stroke="#263238" stroke-linecap="round" stroke-linejoin="round"/>
<path d="M217.443 143.575H23.6442V148.182H217.443V143.575Z" fill="white" stroke="#263238" stroke-linecap="round" stroke-linejoin="round"/>
<path d="M75.5154 134.161L77.7607 143.444H74.0233L75.5154 134.161Z" fill="#263238" stroke="#263238" stroke-linecap="round" stroke-linejoin="round"/>
<path d="M75.5153 134.161H35.7456L34.2535 143.347H74.0233L75.5153 134.161Z" fill="white" stroke="#263238" stroke-linecap="round" stroke-linejoin="round"/>
<path d="M73.615 135.019H37.5049L36.1538 142.488H72.2639L73.615 135.019Z" fill="#369FFF" stroke="#263238" stroke-linecap="round" stroke-linejoin="round"/>
<path d="M117.297 72.3524C137.251 72.3524 153.427 56.21 153.427 36.2974C153.427 16.3848 137.251 0.2425 117.297 0.2425C97.3434 0.2425 81.1676 16.3848 81.1676 36.2974C81.1676 56.21 97.3434 72.3524 117.297 72.3524Z" fill="#263238" stroke="#263238" stroke-linecap="round" stroke-linejoin="round"/>
<path d="M122.911 70.0208C141.579 66.9268 154.198 49.3169 151.098 30.6881C147.997 12.0593 130.351 -0.534195 111.684 2.55981C93.0162 5.65382 80.3967 23.2637 83.4971 41.8925C86.5975 60.5213 104.244 73.1148 122.911 70.0208Z" fill="#369FFF" stroke="#263238" stroke-linecap="round" stroke-linejoin="round"/>
<path d="M93.6627 24.25L88.3167 21.1266L89.2401 19.5601C89.3864 19.2814 89.6066 19.0482 89.8767 18.8859C90.1118 18.7555 90.3839 18.7077 90.6495 18.7501C90.9702 18.8003 91.2775 18.9141 91.5534 19.0848C91.8521 19.2424 92.1061 19.4726 92.2922 19.7541C92.4311 19.9859 92.4908 20.2566 92.4623 20.5252C92.4266 20.8233 92.3254 21.1098 92.1658 21.3643L91.8548 21.8735L94.2362 23.28L93.6627 24.25ZM91.1744 21.4855L91.3931 21.1169C91.4829 20.9816 91.5395 20.8271 91.5583 20.6659C91.5656 20.538 91.5219 20.4125 91.4368 20.3167C91.3122 20.19 91.1698 20.0822 91.014 19.9966C90.8611 19.9012 90.6981 19.8231 90.528 19.7638C90.4671 19.7416 90.4023 19.7327 90.3377 19.7377C90.2731 19.7427 90.2104 19.7615 90.1537 19.7929C90.0049 19.8899 89.8855 20.0257 89.8087 20.1857L89.59 20.5543L91.1744 21.4855Z" fill="#263238"/>
<path d="M96.7586 19.7153C96.5425 20.0071 96.2499 20.2337 95.913 20.37C95.6215 20.4694 95.3053 20.4694 95.0138 20.37C94.6687 20.2409 94.3482 20.0539 94.0661 19.8171L92.2679 18.3621C91.9776 18.1405 91.7305 17.8676 91.5389 17.557C91.3823 17.2981 91.3188 16.9935 91.3591 16.6937C91.4272 16.3314 91.5955 15.9954 91.8451 15.7237C92.0627 15.4279 92.3566 15.1966 92.6956 15.0544C92.9804 14.955 93.2905 14.955 93.5753 15.0544C93.9195 15.178 94.2388 15.362 94.5181 15.5976L96.3212 17.0526C96.6101 17.2757 96.8569 17.5483 97.0502 17.8577C97.2085 18.1216 97.2767 18.4297 97.2446 18.7356C97.1785 19.1014 97.01 19.441 96.7586 19.7153ZM96.1122 19.1915C96.2168 19.0848 96.2775 18.9429 96.2823 18.7938C96.2693 18.6632 96.2168 18.5397 96.1317 18.4397C96.0339 18.3195 95.923 18.2106 95.8012 18.1148L93.585 16.3203C93.4643 16.2218 93.3341 16.1357 93.1962 16.0632C93.0826 16.0046 92.953 15.9841 92.8268 16.005C92.6905 16.0531 92.5702 16.1379 92.4793 16.2501C92.3884 16.3622 92.3303 16.4973 92.3117 16.6404C92.3183 16.7683 92.366 16.8908 92.4477 16.9896C92.5474 17.1097 92.6598 17.2187 92.7831 17.3145L94.9944 19.109C95.1167 19.2052 95.2467 19.2912 95.3832 19.3661C95.4965 19.4308 95.6281 19.4563 95.7574 19.4388C95.9019 19.4022 96.0281 19.3143 96.1122 19.1915Z" fill="#263238"/>
<path d="M98.2992 17.8286L94.0613 13.323L94.8875 12.5518L98.5908 16.49L99.6844 15.4667L100.214 16.0341L98.2992 17.8286Z" fill="#263238"/>
<path d="M100.603 15.7722L96.8024 10.8931L97.6869 10.2093L101.483 15.0884L100.603 15.7722Z" fill="#263238"/>
<path d="M103.563 13.7837C103.256 13.9963 102.891 14.1113 102.518 14.1135C102.208 14.0955 101.912 13.9762 101.677 13.774C101.406 13.5343 101.173 13.2546 100.987 12.9447L99.835 11.0677C99.6337 10.7553 99.4828 10.4132 99.3879 10.0541C99.309 9.75619 99.3383 9.44006 99.4705 9.16166C99.647 8.83308 99.9178 8.56456 100.248 8.39051C100.536 8.1922 100.871 8.07492 101.22 8.05101C101.497 8.04524 101.767 8.13617 101.983 8.30806C102.233 8.50928 102.444 8.75415 102.605 9.03071L102.877 9.47206L101.954 10.0395L101.672 9.58361C101.591 9.44804 101.5 9.31839 101.4 9.19561C101.326 9.09325 101.22 9.01822 101.099 8.98221C101.026 8.97035 100.953 8.97326 100.882 8.99077C100.811 9.00828 100.744 9.04002 100.686 9.08406C100.617 9.11845 100.556 9.16619 100.505 9.22448C100.455 9.28278 100.417 9.35046 100.394 9.42356C100.366 9.5558 100.381 9.69352 100.438 9.81641C100.5 9.97425 100.578 10.1254 100.671 10.2675L102.061 12.5567C102.154 12.717 102.267 12.8652 102.396 12.998C102.486 13.0951 102.606 13.1585 102.736 13.1775C102.873 13.1856 103.008 13.1481 103.12 13.0708C103.186 13.0393 103.245 12.9939 103.292 12.9379C103.339 12.8818 103.373 12.8163 103.393 12.7458C103.41 12.6167 103.39 12.4853 103.334 12.3675C103.268 12.2163 103.19 12.0704 103.101 11.931L102.809 11.446L103.733 10.8786L103.995 11.3005C104.173 11.5796 104.302 11.886 104.379 12.2075C104.448 12.4852 104.419 12.778 104.297 13.0368C104.128 13.3503 103.873 13.6094 103.563 13.7837Z" fill="#263238"/>
<path d="M105.512 12.61L103.004 6.9355L105.38 5.8879L105.701 6.61055L104.36 7.2071L105.079 8.827L106.134 8.342L106.454 9.0598L105.4 9.54481L106.231 11.4121L107.587 10.8107L107.903 11.5236L105.512 12.61Z" fill="#263238"/>
<path d="M110.022 10.8107L108.705 4.77725L110.129 4.46685C110.52 4.36387 110.93 4.34732 111.329 4.41835C111.623 4.48371 111.881 4.65681 112.053 4.90335C112.253 5.21355 112.39 5.55947 112.457 5.92185L112.943 8.12861C113.036 8.49781 113.057 8.8814 113.006 9.25866C112.96 9.56194 112.804 9.83796 112.568 10.0347C112.25 10.2666 111.883 10.4226 111.494 10.4906L110.022 10.8107ZM110.96 9.80671L111.295 9.73396C111.489 9.70662 111.67 9.61829 111.81 9.48176C111.9 9.35505 111.942 9.20003 111.927 9.04526C111.906 8.82994 111.872 8.61612 111.825 8.40506L111.339 6.09645C111.299 5.89777 111.237 5.70417 111.154 5.5193C111.129 5.45471 111.091 5.39619 111.041 5.34767C110.992 5.29915 110.932 5.26176 110.867 5.238C110.687 5.18983 110.498 5.18983 110.318 5.238L109.993 5.3059L110.96 9.80671Z" fill="#263238"/>
<path d="M114.017 10.0298L113.526 3.88L116.116 3.6763L116.179 4.46685L114.721 4.5784L114.862 6.3535L116.014 6.26135L116.072 7.0422L114.925 7.13435L115.086 9.17136L116.544 9.05496L116.607 9.83096L114.017 10.0298Z" fill="#263238"/>
<path d="M117.098 9.81155L117.419 3.64235L119.231 3.73935C119.547 3.74095 119.856 3.82813 120.126 3.99155C120.352 4.13873 120.523 4.3572 120.612 4.61235C120.716 4.92444 120.756 5.25447 120.728 5.58235C120.724 5.92201 120.636 6.25536 120.471 6.55235C120.328 6.77503 120.116 6.94528 119.868 7.03735C119.586 7.14257 119.284 7.18398 118.984 7.1586L118.376 7.1295L118.23 9.86976L117.098 9.81155ZM118.41 6.33895H118.838C119.003 6.35613 119.169 6.33453 119.324 6.2759C119.44 6.22346 119.531 6.12768 119.577 6.00915C119.631 5.84133 119.663 5.66664 119.669 5.4902C119.68 5.30717 119.672 5.1235 119.645 4.94215C119.634 4.87823 119.612 4.81697 119.577 4.762C119.543 4.70702 119.498 4.65944 119.445 4.62205C119.296 4.54028 119.129 4.49694 118.959 4.49595H118.536L118.41 6.33895Z" fill="#263238"/>
<path d="M120.31 9.96676L122.658 4.11765L123.844 4.3359L123.936 10.6409L122.906 10.4518V8.99676L121.846 8.80276L121.355 10.185L120.31 9.96676ZM122.109 8.11891L122.935 8.27411L122.993 5.64541L122.109 8.11891Z" fill="#263238"/>
<path d="M124.315 10.7476L126.317 4.9276L127.722 5.41261C128.07 5.52125 128.398 5.68501 128.694 5.89761C128.922 6.06937 129.083 6.31436 129.151 6.59116C129.209 6.92725 129.173 7.27272 129.049 7.59026C128.977 7.80414 128.88 8.00916 128.762 8.20136C128.667 8.36318 128.535 8.50093 128.378 8.60391C128.207 8.69685 128.014 8.74051 127.819 8.73001L127.649 11.8874L126.58 11.5236L126.789 8.61361L126.303 8.44386L125.389 11.1114L124.315 10.7476ZM126.531 7.76001L126.867 7.87641C127.034 7.94086 127.213 7.96737 127.391 7.95401C127.533 7.93334 127.662 7.86279 127.756 7.75516C127.869 7.61003 127.954 7.44571 128.009 7.27016C128.103 7.04296 128.125 6.79244 128.072 6.55236C128.014 6.36806 127.834 6.22741 127.528 6.12071L127.139 5.98976L126.531 7.76001Z" fill="#263238"/>
<path d="M128.699 12.4209L131.1 7.64361L130.22 7.20226L130.594 6.46021L133.35 7.84246L132.976 8.58451L132.11 8.14801L129.71 12.9253L128.699 12.4209Z" fill="#263238"/>
<path d="M130.876 13.4879L134.545 8.51176L135.517 9.18591L133.753 13.1823L136.985 10.2238L137.904 10.8786L134.395 16.005L133.709 15.52L136.14 11.965L132.932 14.9574L132.363 14.55L134.137 10.51L131.566 13.9777L130.876 13.4879Z" fill="#263238"/>
<path d="M134.871 16.49L139.177 12.0571L141.043 13.8613L140.489 14.4288L139.435 13.4103L138.195 14.6858L139.026 15.4861L138.477 16.0535L137.651 15.2484L136.227 16.7034L137.291 17.7316L136.747 18.2894L134.871 16.49Z" fill="#263238"/>
<path d="M137.053 18.6289L141.913 14.7974L142.399 15.4182L140.562 18.7792L143.332 16.5967L143.911 17.3242L139.051 21.1557L138.589 20.5689L140.533 17.0963L137.617 19.3806L137.053 18.6289Z" fill="#263238"/>
<path d="M139.799 22.31L144.402 19.5795L143.916 18.7307L144.635 18.3088L146.209 20.9569L145.495 21.3788L145.009 20.5495L140.377 23.28L139.799 22.31Z" fill="#263238"/>
<path d="M134.844 53.8081C144.535 44.1372 144.535 28.4574 134.844 18.7864C125.153 9.1154 109.441 9.1154 99.75 18.7864C90.059 28.4574 90.059 44.1372 99.75 53.8081C109.441 63.4791 125.153 63.4791 134.844 53.8081Z" fill="#263238" stroke="#263238" stroke-linecap="round" stroke-linejoin="round"/>
<path d="M121.075 59.1675C133.734 57.0851 142.305 45.1559 140.218 32.5227C138.131 19.8895 126.177 11.3364 113.518 13.4188C100.859 15.5011 92.288 27.4304 94.3747 40.0635C96.4613 52.6967 108.415 61.2498 121.075 59.1675Z" fill="white" stroke="#263238" stroke-linecap="round" stroke-linejoin="round"/>
<path d="M115.999 54.3637C115.159 53.3937 113.846 52.3413 113.224 52.2637C111.198 52.0115 105.414 50.4012 103.062 46.0459C100.666 41.6082 101.871 36.6369 103.368 32.3592C104.569 28.9254 101.755 25.4383 101.726 25.4043L100.88 24.3713L101.852 23.4401L108.428 17.0914L109.331 17.4988C110.501 18.0473 111.776 18.3353 113.069 18.3427C114.278 18.3573 115.474 18.0917 116.563 17.5667L117.292 17.1448L118.016 17.5667C119.106 18.0891 120.302 18.3546 121.511 18.3427C122.805 18.3348 124.081 18.0468 125.253 17.4988L126.152 17.0914L133.709 24.3664L132.849 25.3995C132.825 25.4286 130.011 28.9157 131.211 32.3495C132.031 34.5374 132.576 36.8181 132.835 39.1395C133.092 41.5258 132.633 43.9344 131.518 46.0605C129.17 50.4255 123.387 52.026 121.355 52.2782C120.626 52.3704 118.993 53.6119 118.099 54.4704L117.001 55.5229L115.999 54.3637Z" fill="#263238" stroke="#263238" stroke-linecap="round" stroke-linejoin="round"/>
<path d="M131.736 24.4828L125.875 18.818C124.541 19.4667 123.077 19.8038 121.593 19.8038C120.11 19.8038 118.646 19.4667 117.312 18.818C115.977 19.4667 114.512 19.8039 113.028 19.8039C111.543 19.8039 110.078 19.4667 108.744 18.818L102.848 24.4828C102.848 24.4828 106.25 28.5617 104.739 32.8345C103.227 37.1074 102.25 41.4821 104.34 45.3573C106.43 49.2324 111.81 50.6292 113.404 50.8281C114.998 51.0269 117.093 53.4131 117.093 53.4131C117.093 53.4131 119.581 51.0269 121.175 50.8281C122.77 50.6292 128.15 49.2373 130.239 45.3573C132.329 41.4772 131.338 37.1122 129.841 32.8345C128.344 28.5568 131.736 24.4828 131.736 24.4828Z" fill="#369FFF" stroke="#263238" stroke-linecap="round" stroke-linejoin="round"/>
<path d="M106.581 31.7772L117.331 35.1237L114.012 30.7005L106.581 31.7772Z" fill="white" stroke="#263238" stroke-linecap="round" stroke-linejoin="round"/>
<path d="M117.331 35.1237L120.655 30.7005L128.086 31.7772L117.331 35.1237Z" fill="white" stroke="#263238" stroke-linecap="round" stroke-linejoin="round"/>
<path d="M117.331 35.1237L122.706 37.0055L128.086 31.7772L117.331 35.1237Z" fill="white" stroke="#263238" stroke-linecap="round" stroke-linejoin="round"/>
<path d="M117.331 35.1237L111.956 37.0055L106.581 31.7772L117.331 35.1237Z" fill="white" stroke="#263238" stroke-linecap="round" stroke-linejoin="round"/>
<path d="M117.331 23.9833V35.1237L114.012 30.7005L117.331 23.9833Z" fill="white" stroke="#263238" stroke-linecap="round" stroke-linejoin="round"/>
<path d="M117.331 23.9833L120.655 30.7005L117.331 35.1237V23.9833Z" fill="white" stroke="#263238" stroke-linecap="round" stroke-linejoin="round"/>
<path d="M117.331 35.1237L110.688 44.3921L111.956 37.0055L117.331 35.1237Z" fill="white" stroke="#263238" stroke-linecap="round" stroke-linejoin="round"/>
<path d="M117.331 35.1237V40.9049L110.688 44.3921L117.331 35.1237Z" fill="white" stroke="#263238" stroke-linecap="round" stroke-linejoin="round"/>
<path d="M117.331 35.1237L123.975 44.3921L117.331 40.9049V35.1237Z" fill="white" stroke="#263238" stroke-linecap="round" stroke-linejoin="round"/>
<path d="M117.331 35.1237L122.706 37.0055L123.975 44.3921L117.331 35.1237Z" fill="white" stroke="#263238" stroke-linecap="round" stroke-linejoin="round"/>
<path d="M88.0445 32.7327L88.7006 34.7503H90.8244L89.1088 35.9919L89.7601 38.0046L88.0445 36.763L86.3289 38.0046L86.985 35.9919L85.2694 34.7503H87.3884L88.0445 32.7327Z" fill="white" stroke="#263238" stroke-linecap="round" stroke-linejoin="round"/>
<path d="M95.1208 53.9466L95.7769 55.9642H97.8958L96.1803 57.2058L96.8364 59.2185L95.1208 57.9769L93.4052 59.2185L94.0564 57.2058L92.3408 55.9642H94.4647L95.1208 53.9466Z" fill="white" stroke="#263238" stroke-linecap="round" stroke-linejoin="round"/>
<path d="M139.041 53.9466L139.697 55.9642H141.816L140.1 57.2058L140.757 59.2185L139.041 57.9769L137.325 59.2185L137.981 57.2058L136.261 55.9642H138.385L139.041 53.9466Z" fill="white" stroke="#263238" stroke-linecap="round" stroke-linejoin="round"/>
<path d="M117.035 63.4284L117.691 65.4411H119.815L118.099 66.6876L118.755 68.7003L117.035 67.4587L115.319 68.7003L115.975 66.6876L114.26 65.4411H116.383L117.035 63.4284Z" fill="white" stroke="#263238" stroke-linecap="round" stroke-linejoin="round"/>
<path d="M146.574 32.7327L147.23 34.7503H149.354L147.638 35.9919L148.294 38.0046L146.574 36.763L144.858 38.0046L145.515 35.9919L143.799 34.7503H145.918L146.574 32.7327Z" fill="white" stroke="#263238" stroke-linecap="round" stroke-linejoin="round"/>
<path d="M4.05322 230.802H236.757" stroke="#263238" stroke-linecap="round" stroke-linejoin="round"/>
</g>
<defs>
<clipPath id="clip0_475_1985">
<rect width="237" height="232" fill="white"/>
</clipPath>
</defs>
</svg>
